<svg id="Group_1" data-name="Group 1" xmlns="http://www.w3.org/2000/svg" width="32.289" height="42.583" viewBox="0 0 32.289 42.583">
  <path id="Path_37" data-name="Path 37" d="M70.434,58.709l1.341.837,11.13-6.518-.076-12.884L71.617,33.778,60.487,40.3l.076,12.884,6.274,3.388.041-1.644,1.283-.854-4.733-2.557-.076-9.59,8.265-4.85,8.342,4.739.047,9.578L71.74,56.24l-1.312.872" transform="translate(-60.487 -33.778)" fill="#fff"/>
  <path id="Path_38" data-name="Path 38" d="M127.432,127.609l-1.324-.977-11.13,6.518.076,12.884,11.206,6.372,11.13-6.518L137.314,133l-5.606-3.1V131.3l-1.388.749,4.13,2.627.047,9.578-8.265,4.85-8.318-4.728-.076-9.59,8.306-5.032,1.283-.749" transform="translate(-105.102 -109.822)" fill="#fff"/>
</svg>
